<?xml version="1.0" encoding="utf-8"?>
<!-- Generator: Adobe Illustrator 16.0.3, SVG Export Plug-In . SVG Version: 6.00 Build 0)  -->
<!DOCTYPE svg PUBLIC "-//W3C//DTD SVG 1.1//EN" "http://www.w3.org/Graphics/SVG/1.1/DTD/svg11.dtd">
<svg version="1.1"
	 id="Layer_1" xmlns:dc="http://purl.org/dc/elements/1.1/" xmlns:cc="http://creativecommons.org/ns#" xmlns:rdf="http://www.w3.org/1999/02/22-rdf-syntax-ns#" xmlns:svg="http://www.w3.org/2000/svg" xmlns:sodipodi="http://sodipodi.sourceforge.net/DTD/sodipodi-0.dtd" xmlns:inkscape="http://www.inkscape.org/namespaces/inkscape" inkscape:version="0.92.2 (5c3e80d, 2017-08-06)" sodipodi:docname="mongodb-ar21.svg"
	 xmlns="http://www.w3.org/2000/svg" xmlns:xlink="http://www.w3.org/1999/xlink" x="0px" y="0px" width="120px" height="60px"
	 viewBox="0 0 120 60" enable-background="new 0 0 120 60" xml:space="preserve">
<sodipodi:namedview  inkscape:cy="63.79929" inkscape:cx="58.032127" inkscape:zoom="3.545098" showgrid="false" guidetolerance="10" gridtolerance="10" objecttolerance="10" borderopacity="1" pagecolor="#ffffff" bordercolor="#666666" id="namedview23" inkscape:window-height="1001" inkscape:window-width="1920" inkscape:pageshadow="2" inkscape:pageopacity="0" inkscape:current-layer="Layer_1" inkscape:window-maximized="1" inkscape:window-y="-9" inkscape:window-x="-9">
	</sodipodi:namedview>
<g id="g895" transform="translate(-1.9500178)">
	<g id="g862" transform="matrix(1.6295974,0,0,1.6295974,-22.699855,-22.850935)">
		<path id="path2" inkscape:connector-curvature="0" fill="#599636" d="M25.5,14.238c0.191,0.355,0.451,0.916,0.67,1.257
			c0.15,0.232,0.314,0.437,0.505,0.629c0.56,0.56,1.093,1.148,1.572,1.777c1.134,1.489,1.899,3.143,2.446,4.933
			c0.328,1.093,0.505,2.214,0.519,3.347c0.055,3.389-1.107,6.301-3.457,8.719c-0.383,0.382-0.793,0.738-1.23,1.052
			c-0.232,0-0.342-0.178-0.437-0.342c-0.178-0.301-0.287-0.642-0.342-0.984c-0.082-0.41-0.137-0.82-0.109-1.244
			c0-0.068,0-0.123,0-0.191C25.623,33.151,25.418,14.333,25.5,14.238z"/>
		<path id="path8" inkscape:connector-curvature="0" fill="#6CAC48" d="M25.5,14.197c-0.028-0.055-0.055-0.013-0.082,0.014
			c0.014,0.273-0.082,0.519-0.232,0.751c-0.164,0.232-0.383,0.41-0.601,0.601c-1.216,1.052-2.173,2.323-2.938,3.744
			c-1.011,1.913-1.544,3.963-1.694,6.122c-0.068,0.779,0.246,3.526,0.492,4.319c0.67,2.104,1.872,3.867,3.43,5.398
			c0.383,0.369,0.793,0.711,1.216,1.039c0.123,0,0.137-0.109,0.164-0.191c0.055-0.177,0.096-0.355,0.123-0.533
			c0.123-0.683,0.191-1.366,0.273-2.049C25.65,33.328,25.541,14.265,25.5,14.197z"/>
		<path id="path10" inkscape:connector-curvature="0" fill="#C2BFBF" d="M26.17,36.786c0.028-0.314,0.178-0.574,0.342-0.833
			c-0.164-0.068-0.287-0.205-0.383-0.356c-0.082-0.137-0.15-0.3-0.205-0.451c-0.191-0.574-0.233-1.175-0.287-1.763l0,0l0,0
			c0-0.055,0-0.123,0-0.177l0,0c0-0.055,0-0.123,0-0.177c-0.068,0.055-0.082,0.519-0.082,0.587
			c-0.041,0.629-0.123,1.243-0.246,1.845c-0.041,0.246-0.068,0.493-0.218,0.711c0,0.028,0,0.055,0.013,0.096
			c0.246,0.724,0.314,1.462,0.355,2.214c0,0.096,0,0.178,0,0.273c0,0.328-0.014,0.26,0.26,0.369
			c0.109,0.041,0.232,0.055,0.342,0.137c0.082,0,0.096-0.068,0.096-0.123c-0.014-0.15-0.041-0.301-0.041-0.451
			c0-0.423-0.014-0.833,0-1.257C26.101,37.21,26.142,36.991,26.17,36.786L26.17,36.786z"/>
	</g>
	<g id="g880" transform="matrix(1.0211238,0,0,1.0211238,-2.4262665,-1.8459459)">
		<path id="path4" inkscape:connector-curvature="0" fill="#47474A" d="M38.473,29.017c0,0.696,0,1.393,0,2.076
			c0,0.082,0,0.164,0.013,0.246c0.028,0.247,0.178,0.397,0.41,0.465c0.205,0.055,0.424,0.096,0.628,0.123
			c0.123,0.013,0.164,0.068,0.178,0.191c0.013,0.465-0.027,0.519-0.478,0.493c-1.052-0.055-2.104-0.069-3.157,0
			c-0.041,0-0.082,0-0.109,0c-0.328,0.013-0.355-0.014-0.355-0.342c0-0.055,0.014-0.122,0.014-0.178c0-0.109,0.068-0.15,0.164-0.15
			c0.219-0.028,0.424-0.081,0.628-0.123c0.287-0.068,0.451-0.245,0.479-0.532c0.041-0.316,0.041-0.643,0.041-0.957
			c0.041-1.216,0.028-2.445,0.014-3.663c0-0.231-0.096-0.409-0.301-0.518c-0.246-0.138-0.505-0.247-0.779-0.329
			c-0.082-0.027-0.164-0.04-0.232-0.081c-0.192-0.096-0.205-0.274-0.014-0.383c0.068-0.041,0.15-0.068,0.232-0.082
			c0.833-0.123,1.64-0.328,2.432-0.615c0.164-0.055,0.205-0.041,0.219,0.122c0.014,0.11,0,0.219-0.014,0.316
			c-0.027,0.177-0.027,0.355-0.027,0.518c0,0.069,0.014,0.137,0.082,0.178c0.068,0.041,0.136,0,0.191-0.041
			c0.287-0.219,0.574-0.424,0.888-0.602c0.451-0.246,0.93-0.465,1.449-0.533c0.628-0.081,1.175,0.082,1.654,0.493
			c0.205,0.178,0.369,0.383,0.519,0.601c0.137,0.191,0.15,0.205,0.328,0.069c0.519-0.383,1.066-0.725,1.654-0.971
			c0.615-0.259,1.243-0.3,1.872-0.081c0.642,0.231,1.08,0.683,1.339,1.298c0.219,0.493,0.314,1.012,0.314,1.53
			c0,0.807,0,1.612,0,2.433c0,0.409,0,0.82,0,1.23c0,0.246,0.109,0.409,0.341,0.519c0.26,0.109,0.547,0.15,0.82,0.205
			c0.178,0.041,0.178,0.041,0.178,0.219c-0.028,0.451-0.068,0.478-0.506,0.451c-1.093-0.069-2.2-0.055-3.293,0
			c-0.219,0.013-0.219,0.013-0.232-0.206c0-0.028,0-0.041,0-0.068c-0.014-0.369-0.014-0.369,0.341-0.451
			c0.123-0.027,0.232-0.055,0.355-0.096c0.273-0.082,0.41-0.26,0.424-0.533c0.014-0.341,0.027-0.684,0.041-1.025
			c0-0.888,0.027-1.79-0.027-2.679c-0.014-0.231-0.055-0.465-0.151-0.697c-0.341-0.833-1.093-1.134-1.817-1.052
			c-0.547,0.055-1.025,0.274-1.476,0.588c-0.096,0.068-0.164,0.15-0.15,0.287c0.123,0.874,0.041,1.749,0.055,2.624
			c0.014,0.627,0,1.27,0,1.899c0,0.341,0.137,0.505,0.465,0.587c0.205,0.055,0.41,0.096,0.628,0.137
			c0.096,0.013,0.151,0.055,0.151,0.164c0,0.041,0,0.082,0,0.109c-0.014,0.383-0.041,0.411-0.424,0.397
			c-1.093-0.055-2.187-0.041-3.266,0c-0.369,0.014-0.41-0.028-0.383-0.41c0.014-0.218,0.041-0.231,0.246-0.274
			c0.15-0.027,0.3-0.054,0.451-0.081c0.41-0.082,0.547-0.232,0.574-0.656c0.014-0.301,0.041-0.615,0.041-0.915
			c0.013-0.916,0.041-1.831-0.027-2.747c-0.027-0.342-0.109-0.67-0.287-0.984c-0.273-0.506-0.711-0.765-1.285-0.793
			c-0.588-0.041-1.107,0.177-1.599,0.45c-0.342,0.191-0.492,0.438-0.465,0.834C38.486,27.705,38.459,28.361,38.473,29.017
			C38.459,29.017,38.473,29.017,38.473,29.017z"/>
		<g id="g870">
			<path id="path6" inkscape:connector-curvature="0" fill="#47474A" d="M64.219,29.098c0,0.642,0,1.284,0,1.927
				c0,0.136,0.013,0.274,0.028,0.409c0.027,0.206,0.137,0.329,0.328,0.383c0.231,0.069,0.478,0.11,0.723,0.123
				c0.138,0.014,0.164,0.068,0.178,0.178c0,0.028,0,0.055,0,0.096c-0.013,0.478-0.068,0.533-0.533,0.506
				c-1.039-0.069-2.077-0.055-3.116,0c-0.136,0-0.273,0.013-0.41,0.013c-0.082,0-0.109-0.041-0.123-0.096
				c-0.041-0.191-0.041-0.383,0-0.574c0.013-0.082,0.068-0.109,0.15-0.123c0.191-0.028,0.369-0.068,0.56-0.109
				c0.341-0.082,0.465-0.219,0.478-0.574c0.027-0.383,0.041-0.766,0.041-1.149c0-1.12,0-2.241,0-3.362
				c0-0.246-0.096-0.396-0.314-0.505c-0.246-0.138-0.506-0.233-0.779-0.329c-0.082-0.027-0.164-0.054-0.232-0.096
				c-0.178-0.122-0.191-0.3-0.027-0.436c0.082-0.069,0.164-0.096,0.273-0.11c0.875-0.137,1.721-0.328,2.542-0.656
				c0.096-0.041,0.137-0.013,0.178,0.068c0.04,0.082,0.055,0.178,0.04,0.274c-0.013,0.219-0.027,0.425-0.04,0.643
				c0,0.082-0.041,0.191,0.027,0.232c0.082,0.055,0.137-0.068,0.206-0.11c0.409-0.327,0.847-0.627,1.326-0.847
				c0.423-0.191,0.861-0.327,1.352-0.3c0.916,0.055,1.572,0.52,1.995,1.326c0.219,0.425,0.315,0.888,0.356,1.367
				c0.027,0.328,0.041,0.669,0.041,1.012c0,0.943,0.013,1.873,0.013,2.815c0,0.069,0,0.137,0,0.206
				c0.014,0.231,0.096,0.383,0.328,0.465c0.247,0.081,0.478,0.136,0.738,0.177c0.218,0.028,0.231,0.068,0.246,0.274
				c0,0.028,0,0.041,0,0.068c-0.028,0.465-0.055,0.478-0.519,0.451c-1.025-0.055-2.05-0.055-3.061,0
				c-0.137,0.013-0.273,0-0.41,0.013c-0.081,0-0.136-0.013-0.149-0.096c-0.028-0.178-0.055-0.355-0.014-0.547
				c0.014-0.081,0.055-0.122,0.15-0.136c0.205-0.028,0.424-0.055,0.629-0.109c0.218-0.055,0.341-0.191,0.369-0.41
				c0.013-0.123,0.027-0.259,0.027-0.383c0-0.956,0-1.913-0.013-2.856c0-0.327-0.013-0.656-0.082-0.983
				c-0.164-0.711-0.697-1.19-1.421-1.271c-0.629-0.069-1.19,0.096-1.721,0.437c-0.26,0.164-0.37,0.396-0.37,0.683
				c0,0.478,0,0.956,0,1.449c0,0.205,0,0.41,0,0.615C64.205,29.098,64.205,29.098,64.219,29.098L64.219,29.098z"/>
			<path id="path12" inkscape:connector-curvature="0" fill="#C2BFBF" d="M104.246,25.231c-0.15-0.997-0.519-1.886-1.162-2.664
				c-0.574-0.697-1.27-1.216-2.104-1.558c-0.861-0.356-1.777-0.465-2.707-0.492c-0.383-0.014-5.602,0.068-5.985,0
				c-0.096-0.014-0.164,0.013-0.218,0.096c-0.069,0.109-0.138,0.205-0.178,0.314c-0.164,0.369-0.164,0.342,0.231,0.396
				c0.329,0.055,0.643,0.082,0.956,0.178c0.288,0.096,0.492,0.26,0.56,0.574c0.028,0.151,0.055,4.962,0.055,7.202
				c0,0.533-0.013,1.066-0.055,1.598c-0.013,0.123-0.027,0.247-0.068,0.356c-0.055,0.164-0.15,0.3-0.315,0.369
				c-0.177,0.082-0.369,0.137-0.574,0.15c-0.369,0.041-0.423,0.055-0.546,0.465c-0.014,0.055-0.028,0.11-0.041,0.15
				c-0.027,0.178-0.013,0.205,0.164,0.205c0.819,0.014,3.403,0.042,4.086,0.042c0.383-0.014,0.997,0.027,1.599-0.028
				c0.369-0.041,0.738-0.068,1.107-0.137c1.258-0.232,2.378-0.752,3.335-1.586c0.56-0.492,0.983-1.065,1.312-1.721
				c0.383-0.765,0.546-1.599,0.587-2.446C104.356,26.215,104.328,25.723,104.246,25.231z M102.264,27.171
				c-0.055,0.875-0.232,1.721-0.684,2.487c-0.574,0.997-1.393,1.695-2.528,1.94c-0.493,0.109-0.984,0.15-1.489,0.082
				c-0.369-0.041-0.725-0.082-1.066-0.205c-0.615-0.219-0.833-0.603-0.847-1.19c-0.028-0.861,0-6.887-0.013-8.24
				c0-0.492,0.219-0.602,0.574-0.615c0.533-0.041,1.08-0.028,1.612,0.028c0.574,0.054,1.121,0.191,1.654,0.409
				c0.396,0.164,0.765,0.396,1.08,0.669c0.737,0.628,1.23,1.421,1.489,2.351C102.264,25.641,102.305,26.406,102.264,27.171z"/>
			<path id="path14" inkscape:connector-curvature="0" fill="#C2BFBF" d="M115.602,28.51c0-0.081,0-0.149-0.014-0.231
				c-0.123-0.752-0.519-1.326-1.134-1.763c-0.397-0.287-0.847-0.479-1.311-0.616c-0.082-0.027-0.151-0.055-0.233-0.068
				c0.013-0.068,0.055-0.082,0.096-0.096c0.273-0.137,0.534-0.287,0.765-0.493c0.425-0.355,0.712-0.792,0.847-1.326
				c0.082-0.287,0.082-0.574,0.055-0.874c-0.069-0.752-0.396-1.34-0.998-1.776c-0.627-0.465-1.366-0.656-2.131-0.67
				c-1.477-0.028-2.966,0-4.441,0c-0.425,0-0.847,0.028-1.285-0.041c-0.082-0.013-0.191-0.04-0.259,0.055
				c-0.11,0.177-0.219,0.355-0.259,0.559c-0.014,0.097,0.013,0.15,0.122,0.164c0.314,0.041,0.628,0.096,0.943,0.137
				c0.369,0.055,0.628,0.259,0.656,0.587c0.027,0.232,0.04,0.45,0.04,0.684c0,0.847-0.013,1.708-0.027,2.555
				c-0.027,1.68-0.013,3.375-0.013,5.056c0,0.3-0.041,0.587-0.096,0.887c-0.041,0.206-0.151,0.342-0.356,0.41
				c-0.273,0.082-0.533,0.164-0.82,0.164c-0.178,0-0.287,0.069-0.355,0.233c-0.055,0.122-0.11,0.259-0.123,0.383
				c-0.028,0.164,0.013,0.218,0.177,0.191c0.123-0.013,4.633,0.096,5.48,0.013c0.506-0.055,1.012-0.122,1.503-0.274
				c0.861-0.274,1.655-0.669,2.282-1.339c0.52-0.547,0.821-1.203,0.847-1.968C115.602,28.879,115.602,28.702,115.602,28.51
				L115.602,28.51z M108.974,22.922c0.028-0.369,0.028-0.725,0.041-1.094c0-0.205,0.082-0.3,0.287-0.341
				c0.328-0.069,0.656-0.041,0.984-0.027c0.328,0.027,0.642,0.068,0.971,0.164c0.601,0.177,1.065,0.519,1.339,1.093
				c0.122,0.259,0.191,0.546,0.191,0.833c0.013,0.383-0.013,0.752-0.164,1.121c-0.231,0.506-0.601,0.834-1.134,0.93
				c-0.533,0.096-2.049,0.055-2.282,0.055c-0.205,0-0.218-0.028-0.218-0.232c0-0.437,0-0.874,0-1.298l0,0
				C108.96,23.741,108.946,23.332,108.974,22.922L108.974,22.922z M113.415,30.274c-0.232,0.615-0.656,1.039-1.258,1.271
				c-0.327,0.123-0.656,0.191-1.011,0.177c-0.424-0.013-0.847,0-1.271-0.081c-0.574-0.123-0.834-0.67-0.874-1.066
				c-0.069-0.696-0.028-1.408-0.041-1.926c0-0.725,0-1.258,0-1.805c0-0.218,0.028-0.287,0.259-0.287
				c0.425-0.013,0.847-0.027,1.285,0.013c0.3,0.028,0.587,0.055,0.874,0.11c0.615,0.137,1.175,0.369,1.612,0.847
				c0.356,0.383,0.547,0.847,0.587,1.352C113.621,29.358,113.593,29.822,113.415,30.274z"/>
			<path id="path16" inkscape:connector-curvature="0" fill="#47474A" d="M78.691,26.147c0.123,0.013,0.247,0.04,0.356,0.054
				c0.383,0.014,0.834-0.122,0.97-0.655c0.069-0.259,0.082-0.506,0-0.779c-0.082,0-0.122,0.069-0.164,0.096
				c-0.206,0.164-0.437,0.26-0.684,0.287c-0.492,0.055-0.983,0.028-1.461-0.15c-0.22-0.081-0.438-0.164-0.67-0.232
				c-0.464-0.15-0.956-0.218-1.449-0.191c-0.696,0.055-1.352,0.287-1.967,0.616c-0.656,0.355-1.121,0.887-1.34,1.612
				c-0.122,0.424-0.136,0.86-0.081,1.298c0.137,0.997,0.655,1.695,1.585,2.064c0.055,0.013,0.096,0.04,0.151,0.055
				c0.122,0.068,0.136,0.137,0.027,0.232c-0.109,0.082-0.218,0.164-0.341,0.231c-0.273,0.164-0.546,0.329-0.82,0.507
				c-0.206,0.122-0.233,0.218-0.164,0.436c0.082,0.26,0.232,0.478,0.438,0.656c0.191,0.165,0.396,0.287,0.627,0.383
				c0.151,0.069,0.151,0.11,0.014,0.219c-0.259,0.191-0.519,0.369-0.779,0.56c-0.259,0.191-0.518,0.41-0.737,0.656
				c-0.315,0.355-0.424,0.765-0.328,1.23c0.109,0.493,0.341,0.888,0.711,1.23c0.355,0.328,0.779,0.56,1.258,0.684
				c0.765,0.218,1.557,0.231,2.336,0.081c1.12-0.205,2.091-0.711,2.87-1.545c0.533-0.56,0.847-1.216,0.874-2.008
				c0.041-0.956-0.547-1.764-1.476-1.995c-0.246-0.055-0.493-0.096-0.737-0.137c-0.752-0.096-1.503-0.137-2.255-0.191
				c-0.247-0.014-0.493-0.055-0.697-0.178c-0.259-0.164-0.328-0.478-0.164-0.684c0.122-0.149,0.273-0.245,0.464-0.259
				c0.15-0.013,0.288-0.028,0.437-0.041c0.889-0.096,1.654-0.451,2.311-1.052c0.34-0.315,0.574-0.711,0.696-1.161
				c0.164-0.588,0.164-1.19,0.027-1.791C78.486,26.133,78.499,26.119,78.691,26.147L78.691,26.147z M75.343,32.952
				c0.081,0.014,0.164,0,0.245,0c0.574,0.028,1.162,0.069,1.722,0.219c0.191,0.055,0.355,0.123,0.533,0.206
				c0.547,0.3,0.752,0.82,0.683,1.38c-0.081,0.615-0.423,1.052-0.956,1.339c-0.355,0.191-0.752,0.287-1.161,0.328
				c-0.151,0.013-0.287,0-0.438,0c-0.478,0.013-0.943-0.041-1.393-0.232c-0.315-0.123-0.574-0.3-0.806-0.546
				c-0.478-0.478-0.711-1.353,0.013-2.064C74.223,33.171,74.714,32.898,75.343,32.952z M76.9,28.688
				c-0.287,0.725-0.915,0.943-1.544,0.847c-0.574-0.082-0.998-0.396-1.272-0.915c-0.355-0.697-0.45-1.421-0.245-2.173
				c0.149-0.56,0.492-0.984,1.092-1.08c0.766-0.137,1.49,0.137,1.886,0.902c0.191,0.369,0.287,0.82,0.287,1.462
				C77.092,27.992,77.037,28.347,76.9,28.688z"/>
			<path id="path18" inkscape:connector-curvature="0" fill="#47474A" d="M59.682,27.759c-0.123-0.737-0.396-1.407-0.902-1.967
				c-0.751-0.834-1.708-1.189-2.788-1.203c-0.943-0.013-1.831,0.26-2.624,0.752c-0.792,0.493-1.339,1.19-1.599,2.092
				c-0.232,0.792-0.219,1.599-0.041,2.404c0.478,2.159,2.146,3.089,4.141,2.952c0.588-0.041,1.148-0.232,1.681-0.492
				c0.793-0.369,1.367-0.957,1.763-1.736c0.314-0.643,0.451-1.326,0.437-2.104C59.737,28.265,59.723,28.005,59.682,27.759z
				 M57.742,30.793c-0.246,0.656-0.711,1.052-1.408,1.148c-0.602,0.082-1.161-0.068-1.667-0.424
				c-0.369-0.274-0.656-0.615-0.861-1.025c-0.56-1.148-0.656-2.35-0.369-3.58c0.096-0.383,0.287-0.725,0.574-0.998
				c0.505-0.464,1.093-0.574,1.749-0.436c0.628,0.136,1.107,0.478,1.49,0.997c0.383,0.519,0.574,1.121,0.683,1.749
				c0.055,0.315,0.055,0.643,0.068,0.847C58.001,29.727,57.946,30.26,57.742,30.793z"/>
			<path id="path20" inkscape:connector-curvature="0" fill="#47474A" d="M89.542,27.869c-0.109-0.793-0.396-1.517-0.956-2.118
				c-0.738-0.806-1.695-1.148-2.761-1.162c-0.915-0.013-1.763,0.247-2.541,0.698c-0.875,0.518-1.477,1.257-1.709,2.254
				c-0.273,1.121-0.164,2.214,0.328,3.253c0.451,0.956,1.216,1.571,2.227,1.845c1.121,0.3,2.187,0.164,3.226-0.341
				c0.901-0.437,1.544-1.121,1.913-2.049c0.218-0.547,0.3-1.134,0.314-1.818C89.596,28.306,89.568,28.088,89.542,27.869z
				 M87.656,30.615c-0.219,0.738-0.683,1.216-1.462,1.326c-0.574,0.082-1.121-0.055-1.612-0.383
				c-0.424-0.287-0.724-0.669-0.943-1.12c-0.246-0.479-0.383-0.985-0.437-1.503c-0.082-0.643-0.082-1.272,0.068-1.914
				c0.028-0.122,0.068-0.246,0.123-0.369c0.383-0.956,1.23-1.393,2.227-1.174c0.669,0.149,1.175,0.518,1.558,1.079
				c0.369,0.547,0.547,1.149,0.628,1.79c0.041,0.259,0.055,0.533,0.041,0.766C87.847,29.645,87.806,30.137,87.656,30.615z"/>
		</g>
	</g>
</g>
</svg>
