<?xml version="1.0" encoding="utf-8"?>
<!-- Generator: Adobe Illustrator 21.0.0, SVG Export Plug-In . SVG Version: 6.00 Build 0)  -->
<svg version="1.1" id="Layer_1" xmlns:sketch="http://www.bohemiancoding.com/sketch/ns"
	 xmlns="http://www.w3.org/2000/svg" xmlns:xlink="http://www.w3.org/1999/xlink" x="0px" y="0px" viewBox="0 0 1980.1 814.8"
	 style="enable-background:new 0 0 1980.1 814.8;" xml:space="preserve">
<style type="text/css">
	.st0{opacity:0.45;enable-background:new    ;}
	.st1{opacity:0.6;enable-background:new    ;}
	.st2{opacity:0.8;enable-background:new    ;}
</style>
<title>Vector 1</title>
<desc>Created with Sketch.</desc>
<g>
	<path d="M1980.1,288.4c-2.8,6.2-4.6,10.6-6.7,14.9c-19.6,39.5-39.4,78.9-58.6,118.7c-3.2,6.7-5.1,14.7-5.3,22.1
		c-0.6,29-0.2,58-0.2,87.8c-11.6,0-21.8,0-34.3,0c0-26.2,0.9-52.5-0.4-78.7c-0.6-12.5-3.4-25.6-8.6-36.9
		c-15.8-34.4-33.3-68-50.1-102c-2.2-4.5-4.7-8.8-8.8-16.4c-0.8,9.4-1.4,15.2-2.1,23.2c-20.9,0-41.8,0-64.1,0c0,71.1,0,140,0,210.3
		c-12.9,0-24.4,0-37.2,0c0-69.2,0-138.1,0-209.4c-22.1,0-43,0-64.5,0c0-12,0-21.7,0-32.3c4.5-0.4,8.5-1.2,12.4-1.2
		c59.2-0.1,118.5,0.2,177.7-0.3c9.7-0.1,14.6,2.8,18.6,11.8c13.8,31.3,28.6,62.1,44.1,95.5c14.8-31.8,29-60.1,41-89.3l9-18l19.9,0.1
		"/>
	<path d="M1364,289c32.2,0,63.3-1.6,94.3,0.4c36,2.3,68.7,36,70.4,71.9c1.6,33.1,1.5,66.4-0.4,99.5c-2.1,35.1-34.9,68.5-70,70.8
		c-30.9,2.1-62.1,0.4-94.3,0.4C1364,451.2,1364,371,1364,289z M1400.3,496.4c18.5,0,36.6,1.8,54.3-0.5c21.1-2.7,35.8-17.2,37.1-38.1
		c1.9-30.9,1.8-62.1,0-93c-1.2-20.6-17.7-36.9-38.2-39.4c-17.2-2.1-34.8-0.4-53.2-0.4C1400.3,382.4,1400.3,439.2,1400.3,496.4z"/>
	<path d="M1039.5,411.5c0,15,0.5,30.1-0.1,45.1c-1.9,44-36.4,77.4-80.7,78.6c-44.3,1.2-82-29.6-85.1-73.6
		c-2.4-35-2.4-70.6,0.3-105.6c3.2-41.8,41.7-71.2,86.6-69.8c41.8,1.3,76.7,34.4,78.7,75.5c0.8,16.6,0.1,33.2,0.1,49.8
		C1039.5,411.6,1039.5,411.5,1039.5,411.5z M907,411.8c1.2,15.7,1.3,31.9,3.9,47.6c3.8,22.9,23.9,38.8,45.9,38.4
		c23-0.4,43.5-17.6,44.8-41.4c1.7-30.4,1.8-61,0-91.4c-1.4-24.1-21.5-40.8-44.8-41.3c-22.4-0.5-42.1,14.9-45.9,38.2
		C908.2,378.2,908.2,394.9,907,411.8z"/>
	<path d="M663.4,501.7c8.4-10,15.9-19,23.6-28.3c26.2,19.2,53.8,29,85.4,22c19.4-4.3,29.5-16.2,28.8-33.1
		c-0.6-16.1-10.9-26.6-30.1-30.3c-11.2-2.1-22.5-3.6-33.8-5.6c-39.3-7.1-62.5-33.8-61.4-70.2c1.2-39,24.2-63.7,64.4-69.4
		c29.3-4.1,65.8,6.1,90.2,25.7c-6.3,9.6-12.8,19.4-18.1,27.4c-18.1-5.5-34.6-11.5-51.5-15.2c-7.7-1.7-16.6-0.2-24.4,1.8
		c-15.5,4-23.5,15.6-23.7,31c-0.1,14.5,8.5,24.6,22.5,28.3c13.5,3.6,27.4,5.4,41.1,8c39.9,7.6,61.2,32.3,61,70.4
		c-0.3,39.5-19.8,62.2-61.6,69.1C734.2,540.1,696.8,530.2,663.4,501.7z"/>
	<path d="M1123.1,497.8c39.5,0,76.3,0,114.4,0c0,11.1,0,21.7,0,33.6c-49.3,0-99.3,0-150.1,0c0-80.7,0-160.9,0-242.1
		c11.9,0,23,0,35.7,0C1123.1,358.5,1123.1,427.3,1123.1,497.8z"/>
	<path d="M1277,289c11.7,0,22.4,0,34,0c0,80.8,0,161,0,242.4c-11.2,0-22.2,0-34,0C1277,451.2,1277,371,1277,289z"/>
	<path d="M1612.4,532c-11.6,0-22.4,0-34.2,0c0-80.7,0-160.9,0-242.4c11.1,0,22.1,0,34.2,0C1612.4,369.8,1612.4,450,1612.4,532z"/>
	<g id="Page-1_1_" sketch:type="MSPage">
		<g id="solidity_1_" transform="translate(402.000000, 118.000000)" sketch:type="MSLayerGroup">
			<g id="Group_1_" sketch:type="MSShapeGroup">
				<path id="Shape_11_" class="st0" d="M-8.4-118.2l-130.7,232.3h-261.2l130.6-232.3L-8.4-118.2"/>
				<path id="Shape_10_" class="st1" d="M-139.1,114.2h261.3L-8.4-118.2h-261.3L-139.1,114.2z"/>
				<path id="Shape_9_" class="st2" d="M-269.7,346.4l130.6-232.2l-130.6-232.3l-130.6,232.3L-269.7,346.4z"/>
				<path id="Shape_8_" class="st0" d="M-268.4,694.8l130.7-232.3h261.3L-7.1,694.8H-268.4"/>
				<path id="Shape_7_" class="st1" d="M-137.7,462.5h-261.3l130.6,232.3H-7.1L-137.7,462.5z"/>
				<path id="Shape_6_" class="st2" d="M-7.1,230.3l-130.6,232.2L-7.1,694.8l130.7-232.3L-7.1,230.3z"/>
			</g>
		</g>
	</g>
</g>
</svg>
