<?xml version="1.0" encoding="utf-8"?>
<!-- Generator: Adobe Illustrator 21.0.0, SVG Export Plug-In . SVG Version: 6.00 Build 0)  -->
<svg version="1.1" id="Layer_1" xmlns="http://www.w3.org/2000/svg" xmlns:xlink="http://www.w3.org/1999/xlink" x="0px" y="0px"
	 viewBox="0 0 2007 632" style="enable-background:new 0 0 2007 632;" xml:space="preserve">
<style type="text/css">
	.st0{fill:#F3503C;}
	.st1{fill:#FFFFFF;}
</style>
<g>
	<g>
		<path d="M805.1,407.6c8.4,0,15.7,0,23,0c9.8,0,19.7-0.1,29.5,0.1c1.4,0,3.9,1.6,4.1,2.7c5,28.9,22.7,47.5,48.8,58
			c35,14.1,70.5,14.6,105.5-0.4c18.8-8,33.1-21.2,38.9-41.6c6.8-24-1.9-46.8-22.9-61.1c-17-11.5-36.3-17.1-55.8-22.2
			c-25.1-6.6-50.3-12.7-75.1-20.2c-22-6.7-42.3-17.1-58.7-33.8c-16.3-16.6-24.3-36.9-25.3-59.8c-2.2-51.2,23.6-91.6,73.1-111.2
			c51.4-20.4,103.3-20.4,153.5,4.3c36.1,17.7,57.9,47.1,63.7,87.5c0.5,3.8,0.6,7.6,1,11.8c-18.5,0-36.5,0-55.2,0
			c-0.5-2.8-0.9-5.8-1.6-8.8c-5.7-25-20.9-42.3-44.5-51.4c-30.4-11.8-61.3-11.6-91.6,0.8c-7.6,3.1-14.7,7.9-21.1,13.1
			c-23.7,19.4-32.9,65.9,10.2,88c17.2,8.8,35.6,13.8,54,18.9c27.7,7.7,55.4,15.5,82.8,24.2c14.1,4.5,26.9,12.3,38.7,21.5
			c27.3,21.6,36.4,50.8,34.3,84.3c-3.3,51.6-31.2,85.5-78.7,102.7c-49.4,18-99.7,18.6-149.2,0c-40.4-15.1-67.7-43.3-78-86.2
			C807,422.1,806.3,415.1,805.1,407.6z"/>
		<path d="M1999.3,223.9c0,14.9,0,29,0,43.7c-19,0-37.7,0-57.2,0c0,2.3,0,4.1,0,5.8c0,54.5,0,109,0,163.5c0,4.3,0.3,8.7,0.9,12.9
			c2.2,16.6,12.4,26.4,29.2,27.3c8.8,0.5,17.6,0.1,26.9,0.1c0,8.3,0,17.3,0,26.2c0,4.7,0.2,9.3-0.1,14c-0.1,1.3-1.7,3.4-2.8,3.5
			c-20.3,2.3-40.6,3.3-60.7-1.3c-26.8-6.1-41.5-22.5-45.4-50.4c-1.3-9.5-2-19.2-2-28.9c-0.2-55.3-0.1-110.7-0.1-166c0-2,0-3.9,0-6.2
			c-34.5,0-68.6,0-103.3,0c0,84.2,0,168.2,0,252.6c-18.2,0-35.7,0-53.9,0c0-84,0-168,0-252.8c-14.2,0-27.7,0-41.5,0
			c0-14.9,0-29.2,0-43.8c13.7,0,27.1,0,41.3,0c0-2.5-0.1-4.6,0-6.7c0.7-15.3,0-30.8,2.4-45.8c5-30.9,23.9-48,55.2-52.5
			c16.6-2.4,33.2-2.3,49.8,0.1c1.4,0.2,3.6,2.1,3.6,3.2c0.3,13,0.2,26,0.2,39.5c-4.8-0.5-9.1-1.1-13.5-1.2
			c-5.6-0.2-11.4-0.5-16.9,0.2c-15.6,1.8-24.2,9.5-25.8,25c-1.3,12.3-0.3,24.9-0.3,37.7c33.6,0,67.9,0,102.7,0c0-23.3,0-46.7,0-70.4
			c18.2,0,35.8,0,54,0c0,23.3,0,46.7,0,70.6C1961.2,223.9,1980,223.9,1999.3,223.9z"/>
		<path d="M1438.2,462.1c2.6-10.6,5.2-21.2,7.8-31.9c16.1-67,32.2-133.9,48.2-200.9c0.9-3.8,2.1-5.4,6.5-5.3
			c15.8,0.3,31.6,0.1,48.3,0.1c-27.4,99.2-54.8,198-82.1,297c-17.9,0-35.6,0.1-53.2-0.2c-1.2,0-3.1-2.5-3.6-4.1
			c-8.8-30-17.4-60.1-26-90.2c-12.3-42.7-24.5-85.4-36.8-128.1c-0.4-1.4-0.9-2.8-2.4-4.3c-21.6,75.5-43.2,151.1-64.8,226.6
			c-18.7,0-37,0-55.8,0c-27.4-98.7-54.8-197.4-82.3-296.5c18.1,0,35.8,0,54,0c19,79.1,38.1,158.3,57.2,237.5
			c0.5,0.1,0.9,0.2,1.4,0.2c21.5-79.2,43.1-158.5,64.7-237.8c17.5,0,34.8,0,52.4,0c21.7,79.3,43.4,158.4,65.2,237.6
			C1437.3,462,1437.7,462,1438.2,462.1z"/>
		<path d="M1644.7,520.9c-18.1,0-35.7,0-53.6,0c0-98.9,0-197.6,0-296.5c17.9,0,35.6,0,53.6,0
			C1644.7,323.2,1644.7,421.9,1644.7,520.9z"/>
		<path d="M1618.4,111.8c18.1,0.4,32.6,15,32.3,32.6c-0.3,17.9-15.4,32.6-33.2,32.4c-18.2-0.2-32.8-15.3-32.4-33.6
			C1585.3,125.6,1600.4,111.5,1618.4,111.8z"/>
	</g>
	<path class="st0" d="M485.4,625.5H147.7C70.3,625.5,7,562.2,7,484.8V147.1C7,69.7,70.3,6.4,147.7,6.4h337.7
		c77.4,0,140.7,63.3,140.7,140.7v337.7C626.1,562.2,562.8,625.5,485.4,625.5z"/>
	<path class="st1" d="M421.5,435.2c-54.7,31.6-130,34.9-205.7,2.4C154.5,411.5,103.6,365.9,71,313.7c15.7,13,33.9,23.5,53.5,32.6
		c78.2,36.7,156.4,34.1,211.4,0.1c0,0-0.1-0.1-0.1-0.1C257.6,286.3,191,208,141.5,144.1c-10.4-10.4-18.3-23.5-26.1-35.2
		c60,54.8,155.2,123.9,189.1,143.5c-71.7-75.7-135.7-169.6-133.1-167c113.5,114.8,219.2,180,219.2,180c3.5,2,6.2,3.6,8.4,5.1
		c2.3-5.8,4.3-11.9,6-18.1c18.3-66.5-2.6-142.2-48.3-204.8C462.4,111.5,525,231.5,498.9,331.9c-0.7,2.7-1.4,5.4-2.2,8
		c0.3,0.4,0.6,0.7,0.9,1.1c52.2,65.2,37.8,134.4,31.3,121.3C500.6,407,448.2,423.9,421.5,435.2L421.5,435.2z"/>
</g>
</svg>
