<?xml version="1.0" encoding="utf-8"?>
<!-- Generator: Adobe Illustrator 21.0.0, SVG Export Plug-In . SVG Version: 6.00 Build 0)  -->
<svg version="1.1" id="Layer_2" xmlns="http://www.w3.org/2000/svg" xmlns:xlink="http://www.w3.org/1999/xlink" x="0px" y="0px"
	 viewBox="0 0 10323 3044" style="enable-background:new 0 0 10323 3044;" xml:space="preserve">
<style type="text/css">
	.st0{fill:#05A5CD;}
	.st1{fill:none;stroke:#05A5CD;stroke-width:144.7456;stroke-miterlimit:10;}
</style>
<circle class="st0" cx="1718.2" cy="1526.1" r="302.6"/>
<path class="st1" d="M1718.2,910.9c406.2,0,783.6,58.3,1068.1,156.2c342.8,118,553.6,296.9,553.6,458.9
	c0,168.8-223.4,358.9-591.5,480.8c-278.3,92.2-644.6,140.4-1030.2,140.4c-395.4,0-769.7-45.2-1051.2-141.4
	C310.9,1884.1,96.4,1691.6,96.4,1526c0-160.7,201.3-338.2,539.3-456C921.3,970.5,1308,910.9,1718.2,910.9L1718.2,910.9z"/>
<path class="st1" d="M1182.7,1220.3c202.9-351.9,442-649.7,669-847.2c273.5-238,533.8-331.2,674.1-250.3
	c146.2,84.3,199.3,372.8,121,752.7c-59.2,287.2-200.4,628.5-393.1,962.6c-197.5,342.5-423.7,644.2-647.6,840
	c-283.3,247.7-557.3,337.3-700.7,254.6c-139.2-80.3-192.4-343.3-125.7-695C836.1,1940.3,977.7,1575.6,1182.7,1220.3L1182.7,1220.3z"
	/>
<path class="st1" d="M1183.2,1838.8c-203.5-351.6-342.1-707.4-399.9-1002.7c-69.6-355.8-20.4-627.9,119.8-709
	c146.1-84.6,422.5,13.5,712.5,271c219.3,194.7,444.4,487.5,637.6,821.3c198.1,342.2,346.6,688.8,404.3,980.5
	c73.1,369.2,13.9,651.3-129.4,734.2c-139.1,80.5-393.5-4.7-664.9-238.2C1634,2498.6,1388.7,2193.8,1183.2,1838.8L1183.2,1838.8z"/>
<g>
	<path class="st0" d="M10309,1623.8c-150.5,0-300.9,0-454.4,0c3.1,73.1,14.9,141.2,79.5,182.4c59.3,37.8,125.4,37.4,184.1,0
		c28.9-18.4,49.2-51.9,69.4-81.4c8.7-12.7,14.4-20.3,30.4-19.5c25,1.2,50,0.3,80.3,0.3c-4.7,17-7.3,31.8-12.9,45.5
		c-51.2,124.8-156.3,182.8-303.9,168.3c-110.9-10.9-207.6-102.3-230-221.6c-17.9-95.4-14.6-189.8,31-278.4
		c86.8-168.4,315.2-205.8,447.1-73.7c48.5,48.5,66.1,109.9,73.5,175.7c1.5,13.3,4,26.4,6,39.6
		C10309,1581.9,10309,1602.9,10309,1623.8z M10196.2,1539.7c3.6-110.7-67-183.9-173.2-181.1c-93.9,2.5-171.3,87.7-163.1,181.1
		C9972,1539.7,10084.1,1539.7,10196.2,1539.7z"/>
	<path class="st0" d="M7762.8,1900.1c-39.4,0-76.1,1.7-112.4-1c-10.3-0.8-22.8-12.2-29.1-22.1c-132.5-208-264.3-416.5-396.3-624.9
		c-6.1-9.7-12.5-19.2-23.8-36.3c0,232.3,0,456.8,0,682.9c-38.5,0-72.6,0-109.4,0c0-280.7,0-561.4,0-847.4c41.9,0,84.3-1.2,126.5,1.1
		c8,0.4,16.9,13.8,22.6,22.9c129.1,206.5,257.8,413.2,386.7,619.9c6.5,10.4,13.3,20.6,26.2,29.9c0-223.7,0-447.3,0-672.5
		c38.8,0,72.9,0,109,0C7762.8,1334.6,7762.8,1615.4,7762.8,1900.1z"/>
	<path class="st0" d="M4388.3,1900.1c-38.2,0-71.6,0-105,0c-43,0-44.4,0.1-48.3-44.5c-4.9-56.2-7.2-112.7-10.6-169
		c-0.3-5.2-0.3-10.5-0.6-15.7c-4.2-90.1-44.1-131.4-134.9-134.2c-75.2-2.3-150.6-0.8-225.9-1c-20.8,0-41.6,0-65.8,0
		c0,121.4,0,241,0,362.5c-39.4,0-75.5,0-113.7,0c0-281.3,0-561.9,0-844.3c5.8-1,11.6-2.9,17.5-2.9c137,0.2,274.1-2.2,410.9,2.6
		c46.5,1.7,94.8,16.3,138,34.9c58.4,25.2,89.3,76.5,99.5,139.4c17.5,108.3-11.2,196.7-115.1,255.2c80.7,30,102.8,91.2,103.3,166.1
		c0.3,42.8,2.8,85.7,5.4,128.5c2.3,37.8,5.2,75.5,39,101.7C4385.8,1882.3,4385.6,1890.3,4388.3,1900.1z M3797.4,1440.1
		c85.6,0,168,0.5,250.5-0.3c25-0.2,50.4-1.7,75-6.2c82.2-15,117.3-63.2,113.6-152.9c-3.2-77.6-45.3-124.9-125.3-128.3
		c-102.3-4.4-204.9-2-307.4-2.4c-1.8,0-3.5,2.1-6.3,3.8C3797.4,1247.2,3797.4,1341.2,3797.4,1440.1z"/>
	<path class="st0" d="M5172.3,1469.4c-0.1-96.6,39.8-154.7,124.3-184.2c84.2-29.5,168.9-26.4,251.9,3.7
		c74,26.8,106.1,74.8,106.6,155.9c0.8,106.7,0.2,213.4,0.2,320c0,63.1,3.5,66.5,68.9,63.4c0,19.5,1.6,39.1-0.8,58.2
		c-0.9,7.5-9.6,17.7-16.9,20.1c-75.8,24.5-124.6-1.7-151.7-82.7c-7.3,6.4-13.8,12-20.2,17.7c-70.3,63.5-152.8,90.6-246,74.5
		c-87.6-15.2-144-81.1-149.1-165.6c-5.6-93.2,37.2-162.5,127.2-187.9c61.9-17.4,127.2-22.4,191-32.9c9.3-1.5,18.7-2.1,28-3.6
		c46.9-7.5,60.6-18.5,66.7-53c7.5-42.3-8.4-82.2-43.8-98.9c-57.4-27-117.3-29.1-176.6-6.3c-33.5,12.9-53.9,39.6-59.6,75.1
		c-3.3,20.4-11.9,28.5-32.9,26.8C5217.9,1468.1,5196.1,1469.4,5172.3,1469.4z M5548.5,1593.6c-45,8.9-87.6,17.5-130.3,25.8
		c-33.7,6.6-68.4,9.9-101,19.9c-50.7,15.5-75,56.5-69.5,108.4c4.4,41.3,39.2,76.6,86.1,82.3c64,7.7,124.3-7,170.7-52.2
		c20.9-20.4,36.2-51.7,42.4-80.5C5554,1663.4,5548.5,1626.9,5548.5,1593.6z"/>
	<path class="st0" d="M8485.1,1828.5c7.7,79.9-0.7,88.6-77.6,84.3c-54.5-3.1-77.9-37.6-87.8-90.4c-9.2,8.1-15.7,13.7-22.1,19.4
		c-72.4,64.4-156.4,92.6-252,72.5c-86.6-18.2-138.9-82.1-143.2-167c-4.6-89.6,37.9-158.8,124.7-183.7c62.7-18,129.2-23.1,194-33.8
		c8.2-1.4,16.6-1.8,24.9-3.1c50.7-8,64.8-19.4,70.1-56.9c6.5-45.2-12.5-83.5-52.9-99.9c-52.1-21.1-106.1-23-159.5-5.6
		c-37.7,12.3-61.6,39.4-68.2,78.8c-3.4,20.5-12.2,28.3-33.1,26.7c-21.5-1.7-43.3-0.4-64.5-0.4c-8.5-80.2,29.3-145.6,104.5-177.2
		c92.1-38.7,185.8-35.4,278.1,0.3c68.7,26.6,98.1,80.4,98,152.5c-0.2,106.7,0,213.4,0,320
		C8418.5,1827.8,8421.9,1831.2,8485.1,1828.5z M8309.8,1595.7c-55.1,9.5-111.3,18.6-167.3,29c-23.5,4.3-47.3,9-69.5,17.4
		c-43.6,16.5-64.3,50.8-62.6,97.8c1.5,40.9,26.2,73.2,70.2,85.2c20.6,5.6,43.4,6.8,64.8,5.3c82.5-5.7,152-55.7,163.2-122.5
		C8315,1669.9,8309.8,1629.8,8309.8,1595.7z"/>
	<path class="st0" d="M5040.6,1623.3c-154.2,0-303.3,0-454.1,0c-0.7,58.6,10.7,111,46.2,154.8c70.4,86.9,229,67.5,278.3-36.4
		c14.7-31,30.5-39.3,60.4-36.4c17.5,1.7,35.4,0.3,58,0.3c-15.8,74.1-51,133-112.5,171.3c-156.7,97.3-411.4,47.1-440.7-219.3
		c-10.4-94.2,0.1-186,54.9-267.7c97.4-145.3,310.3-166,431.7-42c42.2,43.1,61.1,96.9,68.9,154.7
		C5036.8,1540.6,5037.5,1579.4,5040.6,1623.3z M4927.2,1539.7c3.9-110.4-67-183.9-173.1-181.1c-93.9,2.4-171.1,87.5-163.2,181.1
		C4703,1539.7,4815.2,1539.7,4927.2,1539.7z"/>
	<path class="st0" d="M6313.3,1680.6c-15.2,104.9-57.9,184.2-160,221c-158.7,57.2-316.3-25.3-354.6-189.9
		c-28.8-123.6-19.6-243.1,58.5-349.7c87.9-120,298.2-134.9,398.1-27.8c38.8,41.6,51,94.3,57.9,154.4c-30.2,0-59,1-87.5-0.8
		c-6-0.4-14.2-10.6-16.6-17.9c-27-82.9-61.7-111.5-140.1-114.2c-69.2-2.3-123.9,35-149.3,106.9c-32.7,92.6-36.8,186.1,2.3,278.5
		c25.9,61,74.8,88.1,139.1,87.7c64.5-0.4,114.3-32,131.9-92.1c15.2-52,42.6-63.8,89.2-56.1
		C6291.4,1681.9,6300.9,1680.6,6313.3,1680.6z"/>
	<path class="st0" d="M9117.7,1280c36.9,0,70.3-1.9,103.3,1.2c8.9,0.8,20.5,15.2,24,25.7c49.4,147.5,97.6,295.5,146.1,443.3
		c2.9,8.9,6.1,17.7,11.2,32.6c12.4-35.4,23.1-65.5,33.5-95.7c43.8-127.4,88-254.6,130.7-382.4c6.5-19.6,15.4-26.4,35.4-25.2
		c27.1,1.6,54.3,0.4,85.2,0.4c-3.1,10.9-5,19.6-8.1,27.9c-71,188.6-142.4,377.1-212.9,565.9c-7.2,19.3-15.7,27.4-37.8,27.1
		c-83.5-1-83.4-0.1-112.9-79.8c-61.8-167.5-123.8-335-185.6-502.5C9125.5,1307.1,9122.5,1295.2,9117.7,1280z"/>
	<path class="st0" d="M6639.7,1819c0.8,6.6,1.6,10.6,1.6,14.6c0.1,20.8,0.1,41.7,0.1,65c-47.7,13.4-94.9,17.1-141.3,0.6
		c-40.4-14.3-55-49.9-59.3-88.8c-3.6-32.1-3.4-64.7-3.5-97c-0.4-103.5-0.1-207-0.1-310.4c0-11.2,0-22.4,0-36.7c-29,0-54.6,0-82.1,0
		c0-29.6,0-56.1,0-86.1c27,0,52.6,0,81.6,0c0-58.3,0-113.2,0-170c36.3,0,69,0,105.1,0c0,55.8,0,110.6,0,168.9c33.9,0,64.7,0,97.6,0
		c0,30,0,56.5,0,86c-31,0-61.9,0-97.3,0c0,14.1,0,25.1,0,36.2c0,112.9,0,225.8,0,338.6c0,71.1,8.4,79.5,79,79.1
		C6626.2,1818.9,6631.4,1819,6639.7,1819z"/>
	<path class="st0" d="M8812.7,1819c0,27.8,0,53.5,0,85.6c-41.8,0-83.5,4.3-124-1.2c-44.8-6.1-71.3-41.8-75.3-95.4
		c-3.6-49.9-3.1-100.2-3.4-150.4c-0.4-96-0.1-191.9-0.1-291c-28.3,0-54,0-81.8,0c0-29.6,0-56.1,0-86.1c26,0,51.6,0,80.8,0
		c0-58.2,0-113,0-170.2c36.3,0,69,0,105,0c0,54.7,0,109.6,0,168c33.9,0,64.6,0,97.9,0c0,30,0,56.5,0,86.1c-30.1,0-61,0-96.9,0
		c0,14,0,24.9,0,35.9c0,113.9,0,227.9,0,341.8c0,68.1,8.9,76.8,78.1,76.8C8799,1819,8805.1,1819,8812.7,1819z"/>
	<path class="st0" d="M8924,1285.5c34.9,0,67.8,0,102.3,0c0,204.8,0,408,0,613c-34.1,0-67.1,0-102.3,0
		C8924,1695.1,8924,1491.9,8924,1285.5z"/>
	<path class="st0" d="M9026.2,1053.5c0,37.4,0,74.4,0,112.8c-34.7,0-67.7,0-102.5,0c0-37.8,0-73.9,0-112.8
		C8957.2,1053.5,8990.8,1053.5,9026.2,1053.5z"/>
</g>
</svg>
