<?xml version="1.0" encoding="utf-8"?>
<!-- Generator: Adobe Illustrator 21.0.0, SVG Export Plug-In . SVG Version: 6.00 Build 0)  -->
<svg version="1.1" id="Layer_1" xmlns="http://www.w3.org/2000/svg" xmlns:xlink="http://www.w3.org/1999/xlink" x="0px" y="0px"
	 viewBox="0 0 2500 1309" style="enable-background:new 0 0 2500 1309;" xml:space="preserve">
<style type="text/css">
	.st0{fill:#8993BE;}
	.st1{fill:#FFFFFF;}
</style>
<g>
	<ellipse class="st0" cx="1250" cy="650.7" rx="1250" ry="650.7"/>
	<g>
		<path class="st1" d="M804.8,342.5H488L351,1036h162.7l34.2-179.8H702c145.6,8.6,308.2-111.3,308.2-316.8
			C1010.3,419.5,941.8,351,804.8,342.5z M684.9,727.7H582.2l0,0L625,470.9h111.3c59.9,0,102.7,25.7,102.7,77.1
			C830.5,693.5,762,719.2,684.9,727.7z"/>
		<path class="st1" d="M1338,856.2h171.2l59.9-351c17.1-85.6-34.2-154.1-171.2-162.7h-154.1l34.2-179.8h-162.7l-137,693.5h162.7
			l77.1-385.3h128.4c59.9,0,59.9,25.7,51.4,68.5L1338,856.2z"/>
		<path class="st1" d="M1952.1,342.5h-316.8l-137,693.5H1661l34.2-179.8h154.1c145.5,8.6,308.2-111.3,308.2-316.8
			C2157.5,419.5,2089,351,1952.1,342.5z M1832.2,727.7h-102.7h0l42.8-256.9h111.3c59.9,0,102.7,25.7,102.7,77.1
			C1977.7,693.5,1909.2,719.2,1832.2,727.7z"/>
	</g>
</g>
</svg>
