<?xml version="1.0" encoding="utf-8"?>
<!-- Generator: Adobe Illustrator 21.0.0, SVG Export Plug-In . SVG Version: 6.00 Build 0)  -->
<svg version="1.1" id="svg4525" xmlns="http://www.w3.org/2000/svg" xmlns:xlink="http://www.w3.org/1999/xlink" x="0px" y="0px"
	 viewBox="0 0 10188.5 2500" style="enable-background:new 0 0 10188.5 2500;" xml:space="preserve">
<style type="text/css">
	.st0{fill:#D4B830;}
	.st1{opacity:0.986;fill:#EBEBEB;fill-opacity:0;enable-background:new    ;}
	.st2{opacity:0.986;fill:#EBEBEB;fill-opacity:0.9216;enable-background:new    ;}
	.st3{fill:#FDD83C;}
</style>
<g id="g5193" transform="translate(4.988 -113.385)">
	<path id="path5113" class="st0" d="M232.1,2360.5L28,113.5l2199,0.9l-202.4,2244.4l-898.8,253.9L232.1,2360.5z M1859,2237.9
		l170.7-1924.5h-900.5L1136,2436L1859,2237.9z M1045.1,595.5H826.4l-2.6,1151.8l-424.5-115.8l0.9,263.3l644.9,174.1V595.5
		L1045.1,595.5z"/>
	<path id="path5159" class="st1" d="M973.1,2047.5c-28.3-8.6-168.1-46.3-310.5-84.9l-258.1-69.5v-129.5c0-126.9,0-129.5,12.9-125.2
		c6.9,2.6,101.2,28.3,209.3,58.3l196.4,54l1.7-574.6l1.7-574.6h214.4v730.7c0,580.6-1.7,730.7-7.7,730.7
		C1028.8,2062.1,1001.4,2055.2,973.1,2047.5L973.1,2047.5z"/>
	<path id="path5157" class="st2" d="M400.2,1894.8l-0.9-263.3c0,0,271,76.3,424.5,115.8l2.6-1150.9h218.7v1472.6L400.2,1894.8
		L400.2,1894.8z"/>
	<path id="path5117" class="st3" d="M1129.2,312.5h900.5L1859,2237l-729.8,198.1V312.5z M1812.7,1914.5l59.2-719.6l-437.4,48.9
		V859.7l466.6-1.7l18.9-262.4l-704.1,3.4l9.4,955.4l425.4-72.9l-6,212.7l-428.8,114.1l4.3,260.7L1812.7,1914.5L1812.7,1914.5z"/>
</g>
<g>
	<path d="M8891.8,1495.8c0,157,0,305.9,0,458.2c-71.9,0-141.1,0-215.1,0c0-399.5,0-797.5,0-1195.6c129.2-33.9,164.7-19,217.9,97.9
		c70.3-93.8,161.9-134.8,276.4-123.9c143.2,13.5,251.6,116.3,270.9,293.6c12.3,112.9,8.3,234.2-20.3,343.4
		c-63.6,242.8-318.8,307.9-507.5,140.2C8909.3,1505.3,8902.9,1502.6,8891.8,1495.8z M9232.9,1165.3
		c-10.2-55.7-14.7-106.7-29.4-154.6c-20.5-66.9-68.3-101.1-141.3-100.9c-74.6,0.2-138.3,31.4-145.6,102.8
		c-10.6,103.1-5.5,209.7,8.2,312.7c9,67.6,72.5,92,137.7,94.2c65.1,2.2,114.1-29.3,134.7-89.6
		C9215.7,1275.8,9222,1217.6,9232.9,1165.3z"/>
	<path d="M5821.8,1338.2c103.1,24.9,198,48.9,293.5,70.1c22.9,5.1,47.9,2,71.8,0.3c56.6-4,106.4-21.8,121.6-83.5
		c16.4-66.5-17.2-112.6-72.4-143.2c-78.1-43.3-159.9-80.1-236.4-125.8c-152.8-91.3-206.7-261.9-134.5-412.8
		c51.1-106.9,144.8-153,254.9-167.1c139.4-17.9,273.8,5.1,409.3,71.6c-22.8,56.3-45.6,112.5-69.4,171.2
		c-59-17.8-110.8-37.5-164.3-48.4c-42-8.6-90.6-18.8-128.2-5.5c-40,14.1-88.8,49.6-99.7,86c-9.5,31.8,17.7,91.4,47.4,114.5
		c56.2,43.7,126.5,68.7,189.7,103.8c97.7,54.2,194.3,109.5,223.5,231.4c42.2,176.7-49,333.8-225.5,378.2
		c-144.2,36.3-286.9,26.1-428.2-20.9c-42.5-14.1-56.8-36.3-53.9-79.2C5824.3,1431.6,5821.8,1384,5821.8,1338.2z"/>
	<path d="M5040.8,951.5c-25.4-51.1-47.8-96.1-73.8-148.5c177.8-80.9,353.6-107,533.4-30.3c72.7,31,123.8,93.8,125.7,173.9
		c5.2,209.5,1.8,419.2,1.8,629.4c-121.1,28.3-134.8,21.7-199.2-106.6c-67.1,87.5-154.7,127.6-261.2,131.7
		c-213.3,8.2-342-173.9-259.7-371.6c40.4-97.1,127.3-129.3,219.7-143.7c90.2-14.1,182.3-16.6,273.2-24.1
		c24.4-111-20.8-170-130.6-166.9c-38.2,1.1-76.8,8.8-114,18.1C5119,922,5083.3,936.9,5040.8,951.5z M5401,1189.6
		c-69.9,10.9-142.6,14.1-209.7,35.2c-64.2,20.1-82.2,79.7-68,142.9c13.3,58.6,60.8,67.6,113.1,67.3
		C5367.6,1434.2,5427.5,1351.4,5401,1189.6z"/>
	<path d="M3603.7,1064.1c15.3-127.9-31.9-181.7-153.1-168.1c-70.7,8-139.6,31.7-213.8,49.4c-22-44.8-45.2-91.9-70.2-142.9
		c162.4-75.8,323.9-98.6,490.8-47.8c98.6,30,166.1,99.4,169.4,203.8c6.5,204.8,1.9,409.9,1.9,625.4c-44.1,0-95.3,13.4-131.9-4.1
		c-31.6-15.1-46.5-65.3-72.6-105.8c-87.4,113.4-206.9,141.2-341.9,119.3c-110.7-18-181.6-96.6-194.7-212.5
		c-14.5-128.6,32.2-229.3,140.4-264.7c81.3-26.6,169.3-33.5,254.8-46C3523,1064.4,3564.1,1065.9,3603.7,1064.1z M3603,1186.1
		c-77.4,14.4-152.6,19.9-221.4,43.8c-60.7,21-73.2,81.4-58.5,140.5c13.4,54,57.8,64.6,108,64.8
		C3563.7,1435.6,3620.6,1361.7,3603,1186.1z"/>
	<path d="M2394.8,1892.2c0-62.9,0-120.4,0-179.4c12.6,0,22.2-0.9,31.5,0.1c167.1,19.3,221.6-26.7,222.5-196.2
		c1.6-309.7,0.5-619.5,0.5-929.2c0-30.9,0-61.8,0-96.2c78.2,0,149.2,0,219.9,0c3.3,10.8,7.1,17.6,7.1,24.4
		c-0.1,346,8.4,692.3-3.8,1037.9C2862.4,1842.7,2682.5,1962.9,2394.8,1892.2z"/>
	<path d="M3956.4,756.2c12.2-5.1,14.4-6.8,16.7-6.9c214.4-14.6,214.2-14.5,280.1,190.8c46.3,144,93.5,287.8,135.3,416.6
		c55.5-168.3,118.7-352.7,176.3-538.9c16.2-52.4,38-77.1,95-71.6c50,4.8,100.7,1,164.8,1c-28.9,75.4-54.4,141.6-79.6,208
		c-71.9,189.4-144.8,378.5-214.7,568.7c-16.2,44-36.3,63.7-87.5,63.2c-170.4-1.7-169.7,0.6-230.5-159.9
		C4128,1204,4042.5,981.5,3956.4,756.2z"/>
	<path d="M7270.5,955.1c-120-31.6-234.8-97.1-330.1,22.3c-67.9,85.1-68.8,300.9,2.4,378.8c114,124.8,239.2,44.6,367,3.1
		c0,53.4,7.6,105-3.1,152.4c-5.6,24.9-39.6,52-66.8,62.3c-296.3,112.3-542.3-34.6-571.9-347.5c-8-84.3,5.6-174.8,28.8-256.9
		c32.1-113.5,114.2-189.3,231.1-219.3c137.4-35.3,271.3-26.5,407.8,36.9C7313.4,845,7292.7,898.1,7270.5,955.1z"/>
	<path d="M10131.1,742.7c0,62.5,0,110.3,0,166.5c-73.2,0-146.9,0-229.1,0c0,152.1-3.6,295.9,1.9,439.5c2,53.6,49.5,75.4,100.5,72.8
		c45-2.3,89.6-11.1,133.4-16.9c2.4,4.8,4.4,7,4.4,9.1c3.1,172,36.1,161.2-151.6,182.8c-217.1,25.1-312.7-61.8-315-279.2
		c-1.4-132.3-0.3-264.7-0.3-401.4c-39.6-2.5-70.3-4.5-104-6.7c-20.7-57.2-10.1-100.5,51.7-125.4c53-21.3,78.6-63.8,97.2-117
		c40.1-114.5,42.6-113.7,176.4-96.8c0,53.6,0,108.3,0,172.5C9976,742.7,10049.4,742.7,10131.1,742.7z"/>
	<path d="M7513,1581.7c0-278.9,0-551.5,0-823.5c137.4-32.7,149.6-25.5,205,117.6c48.6-39.5,92.7-90.2,148.4-116.3
		c53.2-24.9,118.4-24.3,188.9-36.7c-4.6,52-7.2,84.8-10.4,117.7c-3,30.9-6.7,61.7-10.9,99.9c-30.9,0-59.2-1.3-87.4,0.2
		c-131.4,6.9-210.1,86.8-211.6,218c-1.6,139.8-0.4,279.6-0.4,423C7659.4,1581.7,7590.2,1581.7,7513,1581.7z"/>
	<path d="M8427.5,1583.5c-72.6,0-140.1,0-214,0c0-275.8,0-549.9,0-830.3c68,0,138.8,0,214,0
		C8427.5,1027.4,8427.5,1301.9,8427.5,1583.5z"/>
	<path d="M8318.8,633.8c-81.1,0-120.8-36.3-120.5-110.2c0.3-73.4,39-107.8,121.6-108c82.2-0.2,121.6,35.2,121.3,108.9
		C8440.9,596.9,8399.5,633.8,8318.8,633.8z"/>
</g>
</svg>
