<?xml version="1.0" encoding="utf-8"?>
<!-- Generator: Adobe Illustrator 21.0.0, SVG Export Plug-In . SVG Version: 6.00 Build 0)  -->
<svg version="1.1"
	 id="Layer_1" xmlns:cc="http://creativecommons.org/ns#" xmlns:dc="http://purl.org/dc/elements/1.1/" xmlns:rdf="http://www.w3.org/1999/02/22-rdf-syntax-ns#" xmlns:svg="http://www.w3.org/2000/svg"
	 xmlns="http://www.w3.org/2000/svg" xmlns:xlink="http://www.w3.org/1999/xlink" x="0px" y="0px" viewBox="0 0 695 185"
	 style="enable-background:new 0 0 695 185;" xml:space="preserve">
<style type="text/css">
	.st0{fill:#CCCCCC;}
	.st1{fill:#A6120D;}
	.st2{fill:#B3B3B3;}
	.st3{fill:#DD1B16;}
	.st4{fill:#F2F2F2;}
</style>
<g id="g12">
	<polygon id="polygon14" class="st0" points="189.9,61.2 233.2,118.3 233.2,61.2 241.9,61.2 241.9,132 232.7,132 189.4,74.5 
		189.4,132 180.7,132 180.7,61.2 	"/>
	<path id="path16" class="st0" d="M312.2,129.2c-5.7,2.2-11.9,3.3-18.5,3.3c-25.6,0-38.5-12.3-38.5-36.9c0-23.3,12.4-34.9,37.1-34.9
		c7.1,0,13.7,1,19.8,3v7.9c-6.1-2.3-12.4-3.5-18.8-3.5c-19.3,0-29,9.2-29,27.5c0,19.6,9.5,29.5,28.5,29.5c3,0,6.4-0.4,10.1-1.2V99.8
		h9.2L312.2,129.2L312.2,129.2L312.2,129.2z"/>
	<path id="path18" class="st0" d="M326.8,104.7V61.2h9.2v43.5c0,13.6,6.8,20.4,20.3,20.4c13.5,0,20.3-6.8,20.3-20.4V61.2h9.2v43.5
		c0,18.6-9.8,27.8-29.5,27.8C336.6,132.5,326.8,123.2,326.8,104.7z"/>
	<polygon id="polygon20" class="st0" points="448.3,124.6 448.3,132 402.1,132 402.1,61.2 411.2,61.2 411.2,124.6 	"/>
	<polygon id="polygon22" class="st0" points="487.2,51.9 522.4,132 512.2,132 503.1,109.7 479.6,109.7 482.2,102.3 500,102.3 
		486.8,70.2 461.5,132 452,132 	"/>
	<path id="path24" class="st0" d="M532,132V61.2h30.2c13.5,0,20.2,5.7,20.2,17c0,9.2-6.6,16-19.8,20.4L587,132h-12.1l-22.5-31.8v-6
		c13.5-2.2,20.3-7.3,20.3-15.6c0-6.5-3.8-9.8-11.3-9.8h-20.2V132L532,132L532,132L532,132L532,132z"/>
	<path id="path26" class="st0" d="M621.3,61.2v50.4c0,13.6-8,20.4-24,20.4v-7.4c9.9,0,14.9-4.3,14.9-13V61.2H621.3L621.3,61.2z"/>
	<path id="path28" class="st0" d="M637.6,129.5v-8.4c7.4,2.6,15.4,4,24.1,4c12.2,0,18.3-4.5,18.3-13.4c0-7.6-4.5-11.4-13.5-11.4
		h-9.1c-14.8,0-22.2-6.4-22.2-19.3c0-13.5,9.5-20.3,28.5-20.3c8.2,0,15.9,1,23,3v8.4c-7.1-2.6-14.8-4-23-4
		c-12.9,0-19.3,4.3-19.3,12.9c0,7.6,4.4,11.4,13.1,11.4h9.1c15.1,0,22.6,6.4,22.6,19.3c0,13.9-9.1,20.8-27.4,20.8
		C653.1,132.5,645.1,131.5,637.6,129.5L637.6,129.5z"/>
	<polygon id="polygon30" points="192.2,58.9 235.5,115.9 235.5,58.9 244.2,58.9 244.2,129.7 235.1,129.7 191.7,72.2 191.7,129.7 
		183.1,129.7 183.1,58.9 	"/>
	<path id="path32" d="M314.5,126.9c-5.7,2.2-11.9,3.3-18.5,3.3c-25.6,0-38.5-12.3-38.5-36.9c0-23.3,12.4-34.9,37.1-34.9
		c7.1,0,13.7,1,19.8,3v7.9c-6.1-2.3-12.4-3.5-18.8-3.5c-19.3,0-29,9.2-29,27.5c0,19.6,9.5,29.5,28.5,29.5c3,0,6.4-0.4,10.1-1.2V97.5
		h9.2L314.5,126.9C314.5,126.9,314.5,126.9,314.5,126.9z"/>
	<path id="path34" d="M329.1,102.4V58.9h9.2v43.5c0,13.6,6.8,20.4,20.3,20.4c13.5,0,20.3-6.8,20.3-20.4V58.9h9.2v43.5
		c0,18.6-9.8,27.8-29.5,27.8C338.9,130.2,329.1,120.9,329.1,102.4L329.1,102.4z"/>
	<polygon id="polygon36" points="450.6,122.3 450.6,129.7 404.4,129.7 404.4,58.9 413.5,58.9 413.5,122.3 	"/>
	<polygon id="polygon38" points="489.5,49.6 524.7,129.7 514.5,129.7 505.4,107.4 482,107.4 484.5,100 502.3,100 489.1,67.9 
		463.8,129.7 454.3,129.7 	"/>
	<path id="path40" d="M534.3,129.7V58.9h30.2c13.5,0,20.2,5.7,20.2,17c0,9.2-6.6,16-19.7,20.4l24.3,33.4h-12.1l-22.5-31.8v-6
		c13.5-2.2,20.3-7.3,20.3-15.6c0-6.5-3.8-9.8-11.3-9.8h-20.2v63.2H534.3z"/>
	<path id="path42" class="st1" d="M623.6,58.9v50.4c0,13.6-8,20.4-24,20.4v-7.4c9.9,0,14.9-4.3,14.9-13V58.9H623.6z"/>
	<path id="path44" class="st1" d="M640,127.2v-8.4c7.4,2.6,15.4,4,24.1,4c12.2,0,18.3-4.5,18.3-13.4c0-7.6-4.5-11.4-13.5-11.4h-9.1
		c-14.8,0-22.2-6.4-22.2-19.3c0-13.5,9.5-20.3,28.5-20.3c8.2,0,15.9,1,23,3v8.4c-7.1-2.6-14.8-4-23-4c-12.9,0-19.3,4.3-19.3,12.9
		c0,7.6,4.4,11.4,13.1,11.4h9.1c15.1,0,22.6,6.4,22.6,19.3c0,13.9-9.1,20.8-27.4,20.8C655.4,130.2,647.4,129.2,640,127.2L640,127.2z
		"/>
</g>
<g id="g48">
	<polygon id="polygon50" class="st2" points="17.1,141.8 86.8,180.1 156.9,141.3 170,33 86.7,4.4 4.1,33.5 	"/>
	<polygon id="polygon52" class="st1" points="86.6,171 149.5,136.1 161.7,39.2 86.6,13.6 	"/>
	<polygon id="polygon54" class="st3" points="86.5,171 86.5,13.6 13.3,39.7 24.5,136.6 	"/>
	<path id="path56" class="st4" d="M107.2,97.4L86.5,107H64.7l-10.3,25.6L35.4,133L86.6,19.3L107.2,97.4z M105.2,92.5L86.7,55.8
		L71.5,91.9h15.1L105.2,92.5z"/>
	<polygon id="polygon58" class="st2" points="104,91.9 86.6,91.9 86.5,107 110.6,107 121.8,133 140,133.4 86.5,19.3 86.7,55.8 	"/>
</g>
</svg>
