<?xml version="1.0" encoding="utf-8"?>
<!-- Generator: Adobe Illustrator 21.0.0, SVG Export Plug-In . SVG Version: 6.00 Build 0)  -->
<svg version="1.1" id="Layer_1" xmlns="http://www.w3.org/2000/svg" xmlns:xlink="http://www.w3.org/1999/xlink" x="0px" y="0px"
	 viewBox="0 0 905.9 336.7" style="enable-background:new 0 0 905.9 336.7;" xml:space="preserve">
<style type="text/css">
	.st0{fill:none;}
	.st1{fill:#2C3E50;enable-background:new    ;}
	.st2{fill:#41B883;}
	.st3{fill:#34495E;}
</style>
<path class="st0" d="z"/>
<path d="M78.9,1.2c24.1,0,46.9-0.1,69.8,0.2c1.7,0,3.9,2.2,4.9,3.9c13.3,22.7,26.3,45.5,39.5,68.3c1,1.8,2.2,3.6,3.7,6.1
	c1.4-2.3,2.5-3.9,3.4-5.6c13.2-22.9,26.5-45.8,39.6-68.8c1.7-3,3.5-4.1,7-4.1c22.1,0.2,44.3,0.1,67.8,0.1
	c-39.4,68.2-78.3,135.7-117.8,204.2C157.3,136.9,118.4,69.5,78.9,1.2z"/>
<g>
	<path class="st1" d="M472.7,199.6c5.1-17.4,10.2-34.7,15.4-52.1c7.3-24.7,14.6-49.5,21.8-74.2c1-3.4,2.4-7,6.2-6.7
		c3.5,0.3,7.1,2.1,10.2,4.1c1.1,0.7,1.4,4.1,0.9,5.8c-14.4,47.6-29,95.2-43.5,142.7c-1.8,5.7-5.6,8.2-12.2,8.1
		c-6.3-0.1-9.3-2.4-11.2-8.5c-13.6-44.2-27.3-88.4-40.9-132.6c-0.9-3-1.9-6-2.8-9.1c-1.5-5.3,0.2-8.1,6-9.9c5.9-1.8,9.3-0.3,11,5
		c4.9,16.3,9.7,32.5,14.5,48.8c7.4,25,14.8,50.1,22.3,75.1c0.4,1.2,0.9,2.3,1.4,3.5C472,199.6,472.3,199.6,472.7,199.6z"/>
	<path class="st1" d="M690.8,179c-8.2,0-16.3,0.1-24.5-0.1c-3-0.1-4,1-4.1,4c-0.5,15.4,7.9,26.3,23,29.2c10.2,2,19.9,0.9,28.8-4.8
		c1.3-0.8,2.7-2.1,4-1.9c2.5,0.3,5.6,0.7,7.4,2.2c2.5,2.2,3.4,5.8,0.4,8.4c-3.2,2.8-6.6,5.8-10.5,7.3c-17,6.7-34,6.3-50.1-2.6
		c-12.6-6.9-19.6-17.9-20.1-32.4c-0.4-10.1-0.7-20.4,0.1-30.4c1.7-20.7,22.8-37.6,44.3-36.4c23.7,1.4,40.8,18.8,40.4,41.1
		c-0.2,11.4-5.1,16.4-16.5,16.6c-7.5,0.1-15,0-22.5,0C690.8,179.1,690.8,179,690.8,179z M662.5,167.3c15.3,0,30.2,0.1,45.1,0
		c3.9,0,5.4-2.6,5.5-6.3c0.3-10.4-6.4-20.3-16.1-24.2C681.3,130.5,658.2,141.2,662.5,167.3z"/>
	<path class="st1" d="M536.9,159.9c0-9.7,0-19.3,0-29c0-5.2,3.1-8,8.6-8.1c5.3,0,8.6,3,8.7,8.1c0.1,17.8,0,35.7,0,53.5
		c0,10.9,4.5,19.5,14.2,24.6c16.7,8.9,36.5-3.7,36.8-23.4c0.2-17.8,0-35.7,0.1-53.5c0-6.7,3.2-9.7,9.8-9.3c5.3,0.3,7.8,2.9,7.8,8.3
		c0,18.2,0.2,36.3,0,54.5c-0.3,22.9-20.1,42.1-42.9,42.2c-23.4,0-42.8-19.1-43-42.4C536.8,176.9,536.9,168.4,536.9,159.9z"/>
	<path class="st1" d="M862.5,228.2c-10.5-0.6-21.4-1.9-30.4-9.2c-3-2.5-5.6-5.3-4.3-9.8c1.8-5.9,5.6-7.5,10.4-3.8
		c8.5,6.6,18.1,8.7,28.6,7.9c9.3-0.7,15.3-4.7,16.5-11.1c1.4-7.6-2.4-14-11.5-17.6c-8-3.2-16.5-5.3-24.5-8.5
		c-12.8-5.1-18.5-14.2-17.2-27.2c1.1-10.9,6.3-19.4,16.5-23.8c15.1-6.5,30.2-5.2,44.9,1.8c5.1,2.5,6.2,5.4,4.4,9.5
		c-2.2,5.3-5.4,6.7-10.6,4.3c-7.1-3.3-14.3-5.4-22.2-4.7c-4,0.3-7.9,1.3-11.2,3.8c-8.5,6.4-7.7,17.4,1.7,22.3c7.6,4,16.1,5.2,24.1,8
		c14.5,5.1,22.2,14.8,22.2,28.5c0.1,12.4-6.9,22.4-18.8,26.6C875.3,227.3,869.2,228.2,862.5,228.2z"/>
	<path class="st1" d="M807,186.3c0,18.2,0.2,36.3-0.1,54.5c-0.1,8.4-2.1,16.5-6.8,23.7c-5.2,8-13,11.2-22,11.8
		c-5.5,0.4-9.4-2.8-9.7-7.2c-0.3-4.6,2.5-7.5,8.6-8.2c6.1-0.7,10-4,11.1-9.8c1-5.7,1.6-11.5,1.6-17.3c0.1-33.8,0.1-67.6,0.1-101.4
		c0-7.4,3.3-10.4,10.5-9.4c5.1,0.7,7,2.9,7,8.5c0,18.3,0,36.6,0,55C807.1,186.3,807,186.3,807,186.3z"/>
	<path class="st1" d="M757,227.1c-6.2,0-11.1-4.9-11-11.1c0-6.1,5.1-11,11.2-11c5.9,0.1,10.7,4.9,10.8,10.9
		C768.1,222.2,763.3,227,757,227.1z"/>
	<path class="st1" d="M798.4,73.5c6,0.1,10.8,4.7,10.6,10.3c-0.2,5.2-5,9.6-10.8,9.6c-5.9,0-10.9-4.6-10.9-10
		C787.3,77.9,792.5,73.4,798.4,73.5z"/>
</g>
<g transform="matrix(1.3333 0 0 -1.3333 -76.311 313.34)">
	<g transform="translate(178.06 235.01)">
		<path class="st2" d="M58.6,0L25-58.3L-8.7,0h-112.1L25-252.5L170.8,0H58.6z"/>
	</g>
	<g transform="translate(178.06 235.01)">
		<path class="st3" d="M58.6,0L25-58.3L-8.7,0h-53.8L25-151.5L112.4,0H58.6z"/>
	</g>
</g>
</svg>
