<?xml version="1.0" encoding="utf-8"?>
<!-- Generator: Adobe Illustrator 21.0.0, SVG Export Plug-In . SVG Version: 6.00 Build 0)  -->
<svg version="1.1" id="Layer_1" xmlns="http://www.w3.org/2000/svg" xmlns:xlink="http://www.w3.org/1999/xlink" x="0px" y="0px"
	 viewBox="0 0 3850.2 1753.1" style="enable-background:new 0 0 3850.2 1753.1;" xml:space="preserve">
<style type="text/css">
	.st0{fill:#2062AF;}
	.st1{fill:#3C9CD7;}
	.st2{fill:#FFFFFF;}
	.st3{fill:url(#SVGID_1_);}
	.st4{fill:url(#SVGID_2_);}
	.st5{fill:url(#SVGID_3_);}
	.st6{opacity:5.000000e-02;enable-background:new    ;}
	.st7{fill:url(#SVGID_4_);}
	.st8{enable-background:new    ;}
</style>
<g>
	<path class="st0" d="M1410.4,1580.6l-632.3,170.2l-632.3-170.2L0,0h1556.3L1410.4,1580.6z"/>
	<path class="st1" d="M778.2,128v1487.1l1.4,0.4l511.7-137.8L1409.4,128H778.2L778.2,128z"/>
	<path class="st2" d="M777.6,523.3L325.1,711.7l15,186.6l437.5-187.1l465.4-199l19.3-190.9L777.6,523.3L777.6,523.3z"/>
	
		<linearGradient id="SVGID_1_" gradientUnits="userSpaceOnUse" x1="605.248" y1="1725.3264" x2="605.248" y2="1806.1356" gradientTransform="matrix(4.6418 0 0 -4.6418 -2258.0898 8906.9199)">
		<stop  offset="0.387" style="stop-color:#D1D3D4;stop-opacity:0"/>
		<stop  offset="1" style="stop-color:#D1D3D4"/>
	</linearGradient>
	<path class="st3" d="M325.1,711.7l15,186.6l437.5-187.1v-188L325.1,711.7z"/>
	
		<linearGradient id="SVGID_2_" gradientUnits="userSpaceOnUse" x1="706.2002" y1="1765.6125" x2="706.2002" y2="1849.6101" gradientTransform="matrix(4.6418 0 0 -4.6418 -2258.0898 8906.9199)">
		<stop  offset="0.387" style="stop-color:#D1D3D4;stop-opacity:0"/>
		<stop  offset="1" style="stop-color:#D1D3D4"/>
	</linearGradient>
	<path class="st4" d="M1262.3,321.4L777.6,523.3v188l465.4-199L1262.3,321.4z"/>
	
		<linearGradient id="SVGID_3_" gradientUnits="userSpaceOnUse" x1="556.6569" y1="1689.2844" x2="750.698" y2="1689.2844" gradientTransform="matrix(4.6418 0 0 -4.6418 -2258.0898 8906.9199)">
		<stop  offset="0" style="stop-color:#E8E7E5"/>
		<stop  offset="1" style="stop-color:#FFFFFF"/>
	</linearGradient>
	<path class="st5" d="M325.8,711.7l15,186.6l671.3,2.1l-15,248.8l-220.9,62.2l-212.4-53.6L551,1003.4H353.6l25.7,298.1l398.9,118
		l396.8-115.8l51.5-591.9L325.8,711.7L325.8,711.7z"/>
	<path class="st6" d="M777.6,711.7H325.1l15,186.6l437.5,1.4V711.7L777.6,711.7z M777.6,1210.8l-2.1,0.6l-212.3-53.6l-12.9-154.4
		H353l25.7,298.1l398.9,118V1210.8z"/>
	
		<linearGradient id="SVGID_4_" gradientUnits="userSpaceOnUse" x1="547.7164" y1="1829.047" x2="758.4105" y2="1829.047" gradientTransform="matrix(4.6418 0 0 -4.6418 -2258.0898 8906.9199)">
		<stop  offset="0" style="stop-color:#E8E7E5"/>
		<stop  offset="1" style="stop-color:#FFFFFF"/>
	</linearGradient>
	<path class="st7" d="M284.3,321.4h978L1243,512.3H307.9L284.3,321.4L284.3,321.4z"/>
	<path class="st6" d="M777.6,321.4H284.3l23.6,190.9h469.7V321.4L777.6,321.4z"/>
	<g class="st8">
		<path d="M2118.2,1218.2c-114.9,0-211.4-37.8-289.5-113.3c-78.1-75.5-117.1-173.3-117.1-293.4c0-119.3,39.4-217.5,118.2-294.5
			c78.8-77,174.2-115.5,286.2-115.5c56,0,106.6,8.3,151.9,24.9c45.3,16.6,82,38.5,110,65.8c28,27.3,50.5,55.3,67.4,84
			c16.9,28.7,28.7,58.6,35.4,89.5L2316,717.6c-3.7-15.5-9.6-30.8-17.7-45.9c-8.1-15.1-19.5-30.6-34.3-46.4
			c-14.7-15.8-35-28.7-60.8-38.7s-54.9-14.9-87.3-14.9c-58.9,0-110.9,20.8-155.8,62.4s-67.4,100.7-67.4,177.3
			c0,70.7,22.1,127.1,66.3,169.1c44.2,42,97.2,63,159.1,63c60.4,0,107.2-15.1,140.3-45.3s54.9-64.1,65.2-101.7l166.9,47.5
			c-7.4,30.2-19.4,60-35.9,89.5c-16.6,29.5-39,58.6-67.4,87.3c-28.4,28.7-65.9,52.1-112.7,70.2
			C2227.8,1209.1,2175.7,1218.2,2118.2,1218.2z"/>
		<path d="M3149.2,610.4l-156.9,44.2c-3.7-24.3-15.8-46.8-36.5-67.4s-51.9-30.9-93.9-30.9c-31.7,0-57.5,8.3-77.4,24.9
			c-19.9,16.6-29.8,36.3-29.8,59.1c0,40.5,25.8,65.6,77.3,75.1l105,19.9c72.2,13.3,128,41.4,167.4,84.5s59.1,93.4,59.1,150.8
			c0,65.6-26.2,123.2-78.5,172.9c-52.3,49.7-122.7,74.6-211,74.6c-98.7,0-175.2-25.6-229.3-76.8c-54.2-51.2-84.5-109.2-91.2-174
			l160.2-38.7c3.7,39,19,71.3,45.9,96.7c26.9,25.4,65.7,38.1,116.6,38.1c33.9,0,60.8-7.5,80.7-22.7c19.9-15.1,29.8-34.8,29.8-59.1
			c0-19.9-7.4-36.7-22.1-50.3s-35.4-23-61.9-28.2l-107.2-19.9c-66.3-12.5-118.4-39.4-156.4-80.7s-56.9-91-56.9-149.2
			c0-72.2,27.6-132.2,82.9-180.1s121.2-71.8,197.8-71.8c46.4,0,87.8,6.5,124.3,19.3s65.4,30,86.8,51.4
			c21.4,21.4,38.1,43.5,50.3,66.3C3136.5,561.4,3144.7,585.4,3149.2,610.4z"/>
		<path d="M3822.1,610.4l-156.9,44.2c-3.7-24.3-15.8-46.8-36.5-67.4s-51.9-30.9-93.9-30.9c-31.7,0-57.5,8.3-77.4,24.9
			c-19.9,16.6-29.8,36.3-29.8,59.1c0,40.5,25.8,65.6,77.3,75.1l105,19.9c72.2,13.3,128,41.4,167.4,84.5s59.1,93.4,59.1,150.8
			c0,65.6-26.2,123.2-78.5,172.9c-52.3,49.7-122.7,74.6-211,74.6c-98.7,0-175.2-25.6-229.3-76.8c-54.2-51.2-84.5-109.2-91.2-174
			l160.2-38.7c3.7,39,19,71.3,45.9,96.7c26.9,25.4,65.7,38.1,116.6,38.1c33.9,0,60.8-7.5,80.7-22.7c19.9-15.1,29.8-34.8,29.8-59.1
			c0-19.9-7.4-36.7-22.1-50.3s-35.4-23-61.9-28.2l-107.2-19.9c-66.3-12.5-118.4-39.4-156.4-80.7s-56.9-91-56.9-149.2
			c0-72.2,27.6-132.2,82.9-180.1s121.2-71.8,197.8-71.8c46.4,0,87.8,6.5,124.3,19.3s65.4,30,86.8,51.4
			c21.4,21.4,38.1,43.5,50.3,66.3C3809.4,561.4,3817.7,585.4,3822.1,610.4z"/>
	</g>
</g>
</svg>
