<?xml version="1.0" encoding="utf-8"?>
<!-- Generator: Adobe Illustrator 21.0.0, SVG Export Plug-In . SVG Version: 6.00 Build 0)  -->
<svg version="1.1" id="Layer_1" xmlns="http://www.w3.org/2000/svg" xmlns:xlink="http://www.w3.org/1999/xlink" x="0px" y="0px"
	 viewBox="0 0 6164 2009.9" style="enable-background:new 0 0 6164 2009.9;" xml:space="preserve">
<style type="text/css">
	.st0{fill:#E44D26;}
	.st1{fill:#F16529;}
	.st2{fill:#EBEBEB;}
	.st3{fill:#FFFFFF;}
</style>
<path class="st0" d="M1769.8,0l-160.9,1803l-723.5,200.6l-721.5-200.3L3.1,0H1769.8L1769.8,0z"/>
<path class="st1" d="M886.4,1850.3l584.6-162.1l137.5-1540.8H886.4V1850.3z"/>
<path class="st2" d="M573.5,589.8h312.9V368.6H331.8l5.3,59.3l54.4,609.5h494.9V816.3H593.8L573.5,589.8z M623.4,1148h-222l31,347.3
	l453.1,125.8l1-0.3v-230.1l-1,0.3l-246.3-66.5L623.4,1148L623.4,1148z"/>
<path class="st3" d="M885.7,1037.4H1158l-25.7,286.8l-246.7,66.6V1621l453.4-125.7l3.3-37.4l52-582.3l5.4-59.4h-514L885.7,1037.4
	L885.7,1037.4z M885.7,589.3v0.5h534.2l4.4-49.7l10.1-112.1l5.3-59.3h-554L885.7,589.3L885.7,589.3z"/>
<g>
	<polygon points="3233.4,774.5 3484.9,774.5 3539.9,774.5 3539.9,829.5 3540,1470.8 3778.3,1470.8 3778.3,829.5 3778.3,774.5 
		3833.3,774.5 4085,774.5 4085,539 3233.4,539 	"/>
	<polygon points="2873.8,828 2873.8,883 2818.8,883 2500.2,883 2445.2,883 2445.2,828 2445.2,539 2207,539 2207,1470.8 
		2445.2,1470.8 2445.2,1176.9 2445.2,1121.9 2500.2,1121.9 2818.8,1121.9 2873.8,1121.9 2873.8,1176.9 2873.8,1470.8 3112,1470.8 
		3112,539 2873.8,539 	"/>
	<polygon points="4784.4,878.7 4737.4,955.7 4690.5,878.7 4483.2,539 4206,539 4206,1470.9 4436.7,1470.9 4436.7,1009.5 
		4436.7,823.3 4537.9,979.7 4734.4,1283.3 4930.8,979.6 5032,823.1 5032,1009.5 5032,1470.8 5268.8,1470.8 5268.8,539 4991.4,539 	
		"/>
	<polygon points="5682.2,1236.4 5627.2,1236.4 5627.2,1181.4 5627.2,539 5388.9,539 5388.8,1470.8 6116.9,1470.8 6116.9,1236.4 	"/>
</g>
</svg>
