<?xml version="1.0" encoding="utf-8"?>
<!-- Generator: Adobe Illustrator 16.0.3, SVG Export Plug-In . SVG Version: 6.00 Build 0)  -->
<!DOCTYPE svg PUBLIC "-//W3C//DTD SVG 1.1//EN" "http://www.w3.org/Graphics/SVG/1.1/DTD/svg11.dtd">
<svg version="1.1" id="Layer_1" xmlns="http://www.w3.org/2000/svg" xmlns:xlink="http://www.w3.org/1999/xlink" x="0px" y="0px"
	 width="640px" height="640px" viewBox="0 0 640 640" enable-background="new 0 0 640 640" xml:space="preserve">
<path opacity="0.15" fill="none" stroke="#EE4599" stroke-width="6" stroke-miterlimit="10" enable-background="new    " d="
	M326.459,455.925c-66.825,0-121-54.175-121-121c0-66.827,54.175-121,121-121"/>
<path opacity="0.06" fill="none" stroke="#F6851F" stroke-width="5" stroke-miterlimit="10" enable-background="new    " d="
	M323.167,543.834c-115.244,0-208.667-92.379-208.667-206.334c0-113.954,93.423-206.333,208.667-206.333"/>
<path opacity="0.03" fill="none" stroke="#EE4599" stroke-width="3" stroke-miterlimit="10" enable-background="new    " d="
	M327.36,631.258c-177.229,0-320.901-133.568-320.901-298.334c0-164.765,143.672-298.333,320.901-298.333"/>
<path opacity="0.15" fill="none" stroke="#EE4599" stroke-width="6" stroke-miterlimit="10" enable-background="new    " d="
	M326.459,213.925c66.825,0,121,54.173,121,121c0,66.825-54.175,121-121,121"/>
<path opacity="0.06" fill="none" stroke="#F6851F" stroke-width="5" stroke-miterlimit="10" enable-background="new    " d="
	M323.167,131.167c121.228,0,219.5,92.379,219.5,206.333c0,113.955-98.272,206.334-219.5,206.334"/>
<path opacity="0.03" fill="none" stroke="#EE4599" stroke-width="3" stroke-miterlimit="10" enable-background="new    " d="
	M327.36,34.591c177.229,0,320.901,133.568,320.901,298.333c0,164.766-143.672,298.334-320.901,298.334"/>
</svg>
