<?xml version="1.0" encoding="utf-8"?>
<!-- Generator: Adobe Illustrator 16.0.3, SVG Export Plug-In . SVG Version: 6.00 Build 0)  -->
<!DOCTYPE svg PUBLIC "-//W3C//DTD SVG 1.1//EN" "http://www.w3.org/Graphics/SVG/1.1/DTD/svg11.dtd">
<svg version="1.1" id="Layer_1" focusable="false" xmlns="http://www.w3.org/2000/svg" xmlns:xlink="http://www.w3.org/1999/xlink"
	 x="0px" y="0px" width="50px" height="50px" viewBox="0 0 50 50" enable-background="new 0 0 50 50" xml:space="preserve">
<circle fill="#FFFFFF" stroke="#FFFFFF" stroke-miterlimit="10" cx="25" cy="25" r="21.991"/>
<path fill="#D63361" d="M18.5,34.625h-5v-15h5V34.625z M16.001,17.625c-1.383,0-2.501-1.121-2.501-2.501s1.12-2.499,2.501-2.499
	c1.378,0,2.499,1.121,2.499,2.499C18.5,16.504,17.379,17.625,16.001,17.625z M36.5,34.625h-4.807v-7.3
	c0-1.741-0.033-3.979-2.5-3.979c-2.502,0-2.887,1.896-2.887,3.854v7.426H21.5V19.614h4.614v2.051h0.065
	c0.641-1.181,2.211-2.424,4.551-2.424c4.869,0,5.77,3.108,5.77,7.151V34.625z"/>
</svg>
