<?xml version="1.0" encoding="utf-8"?>
<!-- Generator: Adobe Illustrator 16.0.3, SVG Export Plug-In . SVG Version: 6.00 Build 0)  -->
<!DOCTYPE svg PUBLIC "-//W3C//DTD SVG 1.1//EN" "http://www.w3.org/Graphics/SVG/1.1/DTD/svg11.dtd">
<svg version="1.1" id="Layer_1" focusable="false" xmlns="http://www.w3.org/2000/svg" xmlns:xlink="http://www.w3.org/1999/xlink"
	 x="0px" y="0px" width="50px" height="50px" viewBox="0 0 50 50" enable-background="new 0 0 50 50" xml:space="preserve">
<circle fill="#FFFFFF" stroke="#FFFFFF" stroke-miterlimit="10" cx="25" cy="25" r="21.991"/>
<g id="surface1">
	<path fill="#D63361" d="M38.48,17.574c-0.941,0.418-1.953,0.699-3.016,0.828c1.082-0.652,1.918-1.68,2.309-2.906
		c-1.016,0.602-2.141,1.039-3.336,1.273c-0.957-1.02-2.32-1.656-3.832-1.656c-2.898,0-5.25,2.352-5.25,5.25
		c0,0.41,0.047,0.813,0.137,1.195c-4.363-0.219-8.23-2.313-10.82-5.488c-0.453,0.777-0.711,1.68-0.711,2.645
		c0,1.82,0.926,3.426,2.336,4.367c-0.863-0.027-1.672-0.262-2.379-0.656c0,0.023,0,0.043,0,0.066c0,2.543,1.809,4.664,4.211,5.148
		c-0.441,0.121-0.902,0.184-1.383,0.184c-0.34,0-0.668-0.031-0.988-0.094c0.668,2.082,2.605,3.605,4.902,3.645
		c-1.793,1.41-4.059,2.246-6.52,2.246c-0.426,0-0.84-0.023-1.25-0.07c2.32,1.488,5.082,2.355,8.047,2.355
		c9.656,0,14.938-8,14.938-14.934c0-0.23-0.004-0.457-0.016-0.684C36.887,19.555,37.777,18.629,38.48,17.574"/>
</g>
</svg>
